# xmcd CD database file
# Generated: Son Jul 11 15:38:43 2004 by KSCD
# 
# Track frame offsets:
#       182
#       11517
#       28660
#       48852
#       58955
#       70332
#       83075
#       95387
#       108960
#       122645
#       134685
#       148957
#       159322
#       173282
#
# Disc length: 2490 seconds
#
# Revision: 2
# Processed by: cddbd v1.5.1PL0 Copyright (c) Steve Scherf et al.
# Submitted via: Kscd 1.3.3
#
DISCID=b809b80e
DTITLE=Jim Croce - The Very Best Of
DYEAR=1900
DGENRE=
TTITLE0=I'll Have To Say I Love You In A Song
TTITLE1=Operator (That's Not The Way It Feels)
TTITLE2=Chain Gang Medley: Chain Gang, He Don't Love You, Searchin
TTITLE3=Alabama Rain
TTITLE4=Working At The Car-Wash Blues
TTITLE5=Walkin' Back To Georgia
TTITLE6=Rapid Roy (The Stock Car Boy)
TTITLE7=Bad Bad Leroy Brown
TTITLE8=Lover's Cross
TTITLE9=Dreamin' Again
TTITLE10=These Dreams
TTITLE11=Which Way Are You Going
TTITLE12=New York's Not My Home
TTITLE13=You Don't Mess Around With Jim
EXTD=
EXTT0=
EXTT1=
EXTT2=
EXTT3=
EXTT4=
EXTT5=
EXTT6=
EXTT7=
EXTT8=
EXTT9=
EXTT10=
EXTT11=
EXTT12=
EXTT13=
PLAYORDER=
